<svg width="665.1200439453124px" height="120.8px" xmlns="http://www.w3.org/2000/svg" viewBox="-82.56002197265622 14.600000000000001 665.1200439453124 120.8" style="background: rgba(0, 0, 0, 0);" preserveAspectRatio="xMidYMid"><defs><filter id="editing-neon" x="-100%" y="-100%" width="300%" height="300%"><feFlood flood-color="#00ff2f" result="flood"></feFlood><feComposite operator="in" in="flood" in2="SourceAlpha" result="color"></feComposite><feFlood flood-color="#00ff2f" result="flood2"></feFlood><feComposite operator="in" in="flood2" in2="SourceAlpha" result="color2"></feComposite><feMorphology operator="dilate" radius="2" in="color" result="dilate"></feMorphology><feGaussianBlur stdDeviation="6" in="color" result="blur1"></feGaussianBlur><feGaussianBlur stdDeviation="2.5" in="color" result="blur2"></feGaussianBlur><feGaussianBlur stdDeviation="1" in="SourceAlpha" result="blur3"></feGaussianBlur><feGaussianBlur stdDeviation="6" in="dilate" result="blur4"></feGaussianBlur><feConvolveMatrix in="color2" result="conv" order="3,3" divisor="1" kernelMatrix="1 1 1  1 1 1  1 1 1"></feConvolveMatrix><feMerge><feMergeNode in="blur1"></feMergeNode><feMergeNode in="blur2"></feMergeNode><feMergeNode in="blur4"></feMergeNode><feMergeNode in="blur3"></feMergeNode><feMergeNode in="blur3"></feMergeNode><feMergeNode in="blur3"></feMergeNode><feMergeNode in="blur3"></feMergeNode><feMergeNode in="conv"></feMergeNode><feMergeNode in="SourceGraphic"></feMergeNode></feMerge></filter></defs><g filter="url(#editing-neon)"><g transform="translate(14.575029492378235, 99)"><path d="M26.05-29.57L26.05-29.57L26.05-29.57Q27.01-31.49 27.01-33.28L27.01-33.28L27.01-33.28Q27.01-35.07 26.82-36.06L26.82-36.06L26.82-36.06Q26.62-37.06 26.18-37.82L26.18-37.82L26.18-37.82Q25.22-39.49 23.30-39.49L23.30-39.49L23.30-39.49Q20.93-39.49 19.01-37.76L19.01-37.76L19.01-37.76Q16.96-35.97 16.96-33.15L16.96-33.15L16.96-33.15Q16.96-31.36 18.21-29.98L18.21-29.98L18.21-29.98Q19.46-28.61 21.38-27.33L21.38-27.33L21.38-27.33Q23.30-26.05 25.47-24.77L25.47-24.77L25.47-24.77Q27.65-23.49 29.57-21.95L29.57-21.95L29.57-21.95Q33.98-18.43 33.98-13.70L33.98-13.70L33.98-13.70Q33.98-10.50 32.29-7.78L32.29-7.78L32.29-7.78Q30.59-5.06 27.78-3.07L27.78-3.07L27.78-3.07Q21.63 1.28 13.50 1.28L13.50 1.28L13.50 1.28Q6.91 1.28 3.52-0.86L3.52-0.86L3.52-0.86Q0.13-3.01 0.13-6.27L0.13-6.27L0.13-6.27Q0.13-12.10 4.67-13.57L4.67-13.57L4.67-13.57Q5.95-14.02 7.90-14.02L7.90-14.02L7.90-14.02Q9.86-14.02 12.10-13.18L12.10-13.18L12.10-13.18Q11.07-10.56 11.07-8.19L11.07-8.19L11.07-8.19Q11.07-3.07 14.72-3.07L14.72-3.07L14.72-3.07Q17.09-3.07 19.04-4.80L19.04-4.80L19.04-4.80Q20.99-6.53 20.99-8.48L20.99-8.48L20.99-8.48Q20.99-10.43 19.74-11.84L19.74-11.84L19.74-11.84Q18.50-13.25 16.64-14.37L16.64-14.37L16.64-14.37Q14.78-15.49 12.64-16.58L12.64-16.58L12.64-16.58Q10.50-17.66 8.64-19.20L8.64-19.20L8.64-19.20Q4.29-22.72 4.29-28.35L4.29-28.35L4.29-28.35Q4.29-32 6.08-34.85L6.08-34.85L6.08-34.85Q7.87-37.70 10.75-39.62L10.75-39.62L10.75-39.62Q16.51-43.52 23.58-43.52L23.58-43.52L23.58-43.52Q30.66-43.52 34.08-41.41L34.08-41.41L34.08-41.41Q37.50-39.30 37.50-35.71L37.50-35.71L37.50-35.71Q37.50-32.58 35.07-30.59L35.07-30.59L35.07-30.59Q32.96-28.93 30.40-28.93L30.40-28.93L30.40-28.93Q27.84-28.93 26.05-29.57ZM52.80 1.28L52.80 1.28L52.80 1.28Q38.72 1.28 38.72-11.97L38.72-11.97L38.72-11.97Q38.72-21.38 43.90-27.46L43.90-27.46L43.90-27.46Q49.41-33.92 58.94-33.92L58.94-33.92L58.94-33.92Q65.86-33.92 69.38-30.72L69.38-30.72L69.38-30.72Q72.90-27.52 72.90-20.80L72.90-20.80L72.90-20.80Q72.90-10.56 67.39-4.61L67.39-4.61L67.39-4.61Q62.02 1.28 52.80 1.28ZM54.46-26.56L54.46-26.56L54.46-26.56Q53.70-24.83 53.09-22.24L53.09-22.24L53.09-22.24Q52.48-19.65 51.71-15.55L51.71-15.55L51.71-15.55Q50.94-11.46 50.94-6.40L50.94-6.40L50.94-6.40Q50.94-4.74 51.49-3.65L51.49-3.65L51.49-3.65Q52.03-2.56 53.50-2.56L53.50-2.56L53.50-2.56Q54.98-2.56 55.90-3.26L55.90-3.26L55.90-3.26Q56.83-3.97 57.54-5.63L57.54-5.63L57.54-5.63Q58.82-8.58 59.84-14.05L59.84-14.05L59.84-14.05Q60.86-19.52 60.96-21.89L60.96-21.89L60.96-21.89Q61.06-24.26 61.06-26.02L61.06-26.02L61.06-26.02Q61.06-27.78 60.54-28.93L60.54-28.93L60.54-28.93Q60.03-30.08 58.59-30.08L58.59-30.08L58.59-30.08Q57.15-30.08 56.19-29.18L56.19-29.18L56.19-29.18Q55.23-28.29 54.46-26.56ZM108.10-26.62L108.10-26.62L108.10-26.62Q108.10-23.94 105.86-22.27L105.86-22.27L105.86-22.27Q103.62-20.61 99.97-20.61L99.97-20.61L99.97-20.61Q98.43-20.61 97.54-21.06L97.54-21.06L97.54-21.06Q98.24-22.72 98.46-24.80L98.46-24.80L98.46-24.80Q98.69-26.88 98.69-27.46L98.69-27.46L98.69-27.46Q98.69-30.14 96.83-30.14L96.83-30.14L96.83-30.14Q95.55-30.14 94.11-28.54L94.11-28.54L94.11-28.54Q92.67-26.94 91.46-24.45L91.46-24.45L91.46-24.45Q88.77-18.69 88.77-12.86L88.77-12.86L88.77-12.86Q88.77-9.66 89.98-8.22L89.98-8.22L89.98-8.22Q91.20-6.78 93.89-6.78L93.89-6.78L93.89-6.78Q97.60-6.78 100.54-9.86L100.54-9.86L100.54-9.86Q101.38-10.82 101.82-11.90L101.82-11.90L101.82-11.90Q104.26-10.62 104.26-7.10L104.26-7.10L104.26-7.10Q104.26-3.52 100.29-1.15L100.29-1.15L100.29-1.15Q96.19 1.28 89.66 1.28L89.66 1.28L89.66 1.28Q76.67 1.28 76.67-12.48L76.67-12.48L76.67-12.48Q76.67-22.53 82.37-28.29L82.37-28.29L82.37-28.29Q87.87-33.92 97.98-33.92L97.98-33.92L97.98-33.92Q108.10-33.92 108.10-26.62ZM125.18-3.52L125.18-3.52L125.18-3.52Q123.20 1.28 116.86 1.28L116.86 1.28L116.86 1.28Q113.60 1.28 111.55-0.96L111.55-0.96L111.55-0.96Q109.82-2.94 109.82-4.93L109.82-4.93L109.82-4.93Q109.82-10.11 112.19-20.22L112.19-20.22L114.56-32.64L127.55-33.92L123.65-13.70L123.65-13.70Q122.56-8.96 122.56-7.30L122.56-7.30L122.56-7.30Q122.56-3.65 125.18-3.52ZM115.71-41.54L115.71-41.54L115.71-41.54Q115.71-44.03 117.79-45.38L117.79-45.38L117.79-45.38Q119.87-46.72 122.88-46.72L122.88-46.72L122.88-46.72Q125.89-46.72 127.71-45.38L127.71-45.38L127.71-45.38Q129.54-44.03 129.54-41.54L129.54-41.54L129.54-41.54Q129.54-39.04 127.52-37.76L127.52-37.76L127.52-37.76Q125.50-36.48 122.50-36.48L122.50-36.48L122.50-36.48Q119.49-36.48 117.60-37.76L117.60-37.76L117.60-37.76Q115.71-39.04 115.71-41.54ZM133.41-1.92L133.41-1.92L133.41-1.92Q131.90-3.58 131.23-6.21L131.23-6.21L131.23-6.21Q130.56-8.83 130.56-13.12L130.56-13.12L130.56-13.12Q130.56-17.41 132.03-21.31L132.03-21.31L132.03-21.31Q133.50-25.22 136.19-28.03L136.19-28.03L136.19-28.03Q141.70-33.92 150.78-33.92L150.78-33.92L150.78-33.92Q154.05-33.92 156.42-32.83L156.42-32.83L167.36-33.92L162.62-8.96L162.62-8.96Q162.43-8.19 162.43-6.78L162.43-6.78L162.43-6.78Q162.43-5.38 163.30-4.48L163.30-4.48L163.30-4.48Q164.16-3.58 165.44-3.46L165.44-3.46L165.44-3.46Q164.80-1.28 162.46 0L162.46 0L162.46 0Q160.13 1.28 157.50 1.28L157.50 1.28L157.50 1.28Q154.88 1.28 153.12 0.29L153.12 0.29L153.12 0.29Q151.36-0.70 150.85-2.37L150.85-2.37L150.85-2.37Q149.82-0.77 147.65 0.26L147.65 0.26L147.65 0.26Q145.47 1.28 142.56 1.28L142.56 1.28L142.56 1.28Q139.65 1.28 137.28 0.51L137.28 0.51L137.28 0.51Q134.91-0.26 133.41-1.92ZM146.91-27.90L146.91-27.90L146.91-27.90Q146.18-26.75 145.54-24.80L145.54-24.80L145.54-24.80Q144.90-22.85 143.84-17.63L143.84-17.63L143.84-17.63Q142.78-12.42 142.78-8.70L142.78-8.70L142.78-8.70Q142.78-4.99 143.36-3.90L143.36-3.90L143.36-3.90Q143.94-2.82 144.96-2.82L144.96-2.82L144.96-2.82Q147.01-2.82 148.51-4.77L148.51-4.77L148.51-4.77Q150.02-6.72 150.59-10.18L150.59-10.18L153.98-28.93L153.98-28.93Q152.64-30.08 151.07-30.08L151.07-30.08L151.07-30.08Q149.50-30.08 148.58-29.57L148.58-29.57L148.58-29.57Q147.65-29.06 146.91-27.90ZM186.11-3.52L186.11-3.52L186.11-3.52Q184.13 1.28 177.79 1.28L177.79 1.28L177.79 1.28Q174.59 1.28 172.54-0.96L172.54-0.96L172.54-0.96Q170.88-2.82 170.88-4.93L170.88-4.93L170.88-4.93Q170.88-9.73 173.12-20.22L173.12-20.22L177.79-44.80L190.78-46.08L184.58-13.70L184.58-13.70Q183.49-8.96 183.49-7.30L183.49-7.30L183.49-7.30Q183.49-3.65 186.11-3.52ZM211.33 0L204.29 0L211.97-42.24L225.73-42.24L235.71-13.18L241.02-42.24L248.13-42.18L240.32 0L225.66 0L216.45-27.97L211.33 0ZM275.65-10.82L275.65-10.82L275.65-10.82Q277.25-9.73 277.25-7.33L277.25-7.33L277.25-7.33Q277.25-4.93 276.03-3.39L276.03-3.39L276.03-3.39Q274.82-1.86 272.83-0.83L272.83-0.83L272.83-0.83Q268.74 1.28 264.32 1.28L264.32 1.28L264.32 1.28Q259.90 1.28 257.31 0.32L257.31 0.32L257.31 0.32Q254.72-0.64 252.99-2.43L252.99-2.43L252.99-2.43Q249.60-5.82 249.60-12.03L249.60-12.03L249.60-12.03Q249.60-21.70 254.85-27.58L254.85-27.58L254.85-27.58Q260.48-33.92 270.27-33.92L270.27-33.92L270.27-33.92Q276.35-33.92 279.36-31.36L279.36-31.36L279.36-31.36Q281.60-29.44 281.60-26.30L281.60-26.30L281.60-26.30Q281.60-15.04 262.14-15.04L262.14-15.04L262.14-15.04Q261.89-13.38 261.89-11.97L261.89-11.97L261.89-11.97Q261.89-9.02 263.20-7.90L263.20-7.90L263.20-7.90Q264.51-6.78 266.94-6.78L266.94-6.78L266.94-6.78Q269.38-6.78 271.97-7.90L271.97-7.90L271.97-7.90Q274.56-9.02 275.65-10.82ZM262.59-17.79L262.59-17.79L262.59-17.79Q267.14-17.79 269.76-20.61L269.76-20.61L269.76-20.61Q272.38-23.30 272.38-27.58L272.38-27.58L272.38-27.58Q272.38-29.06 271.84-29.86L271.84-29.86L271.84-29.86Q271.30-30.66 270.21-30.66L270.21-30.66L270.21-30.66Q269.12-30.66 268.19-30.24L268.19-30.24L268.19-30.24Q267.26-29.82 266.30-28.42L266.30-28.42L266.30-28.42Q263.94-25.22 262.59-17.79ZM284.80-6.40L284.80-6.40L284.80-6.40Q284.80-8.13 285.70-12.48L285.70-12.48L289.09-29.76L285.31-29.76L285.57-31.68L285.57-31.68Q293.25-33.98 300.67-39.62L300.67-39.62L303.74-39.62L302.21-32.64L307.20-32.64L306.62-29.76L301.70-29.76L298.43-12.48L298.43-12.48Q297.60-8.51 297.60-7.17L297.60-7.17L297.60-7.17Q297.60-4.10 300.29-3.46L300.29-3.46L300.29-3.46Q299.65-1.28 297.34 0L297.34 0L297.34 0Q295.04 1.28 291.78 1.28L291.78 1.28L291.78 1.28Q288.51 1.28 286.66-0.77L286.66-0.77L286.66-0.77Q284.80-2.82 284.80-6.40ZM354.62-10.69L354.62-10.69Q350.40-4.86 346.34-1.79L346.34-1.79L346.34-1.79Q342.27 1.28 338.08 1.28L338.08 1.28L338.08 1.28Q333.89 1.28 332.42 0.45L332.42 0.45L332.42-13.63L332.42-13.63Q328.77-3.90 322.24-0.13L322.24-0.13L322.24-0.13Q319.87 1.28 317.63 1.28L317.63 1.28L317.63 1.28Q313.34 1.28 311.49 0.45L311.49 0.45L311.49 0.45Q311.04-14.21 310.66-18.27L310.66-18.27L310.66-18.27Q310.27-22.34 309.95-24.83L309.95-24.83L309.95-24.83Q309.31-29.82 307.14-31.87L307.14-31.87L307.14-31.87Q309.89-33.92 313.73-33.92L313.73-33.92L313.73-33.92Q321.15-33.92 322.18-24.70L322.18-24.70L322.18-24.70Q322.43-22.53 322.43-20.22L322.43-20.22L322.43-20.22Q322.43-16.77 321.66-4.74L321.66-4.74L321.66-4.74Q323.20-5.44 324.83-7.97L324.83-7.97L324.83-7.97Q326.46-10.50 327.81-13.95L327.81-13.95L327.81-13.95Q330.82-21.95 330.82-28.86L330.82-28.86L330.82-28.86Q330.82-29.95 330.53-31.10L330.53-31.10L330.53-31.10Q330.24-32.26 329.92-32.58L329.92-32.58L329.92-32.58Q332.16-33.92 335.58-33.92L335.58-33.92L335.58-33.92Q339.01-33.92 340.64-31.58L340.64-31.58L340.64-31.58Q342.27-29.25 342.72-24.96L342.72-24.96L342.72-24.96Q343.23-19.52 343.23-16.26L343.23-16.26L343.23-16.26Q343.23-11.71 342.78-4.99L342.78-4.99L342.78-4.99Q345.98-7.30 348.61-14.85L348.61-14.85L348.61-14.85Q351.23-22.40 351.23-27.78L351.23-27.78L351.23-27.78Q351.23-30.14 350.85-31.55L350.85-31.55L350.85-31.55Q352.96-33.92 356.61-33.92L356.61-33.92L356.61-33.92Q358.85-33.92 360.48-32.70L360.48-32.70L360.48-32.70Q362.11-31.49 362.11-29.22L362.11-29.22L362.11-29.22Q362.11-26.94 361.44-24.51L361.44-24.51L361.44-24.51Q360.77-22.08 359.68-19.58L359.68-19.58L359.68-19.58Q357.57-14.59 354.62-10.69L354.62-10.69ZM377.79 1.28L377.79 1.28L377.79 1.28Q363.71 1.28 363.71-11.97L363.71-11.97L363.71-11.97Q363.71-21.38 368.90-27.46L368.90-27.46L368.90-27.46Q374.40-33.92 383.94-33.92L383.94-33.92L383.94-33.92Q390.85-33.92 394.37-30.72L394.37-30.72L394.37-30.72Q397.89-27.52 397.89-20.80L397.89-20.80L397.89-20.80Q397.89-10.56 392.38-4.61L392.38-4.61L392.38-4.61Q387.01 1.28 377.79 1.28ZM379.46-26.56L379.46-26.56L379.46-26.56Q378.69-24.83 378.08-22.24L378.08-22.24L378.08-22.24Q377.47-19.65 376.70-15.55L376.70-15.55L376.70-15.55Q375.94-11.46 375.94-6.40L375.94-6.40L375.94-6.40Q375.94-4.74 376.48-3.65L376.48-3.65L376.48-3.65Q377.02-2.56 378.50-2.56L378.50-2.56L378.50-2.56Q379.97-2.56 380.90-3.26L380.90-3.26L380.90-3.26Q381.82-3.97 382.53-5.63L382.53-5.63L382.53-5.63Q383.81-8.58 384.83-14.05L384.83-14.05L384.83-14.05Q385.86-19.52 385.95-21.89L385.95-21.89L385.95-21.89Q386.05-24.26 386.05-26.02L386.05-26.02L386.05-26.02Q386.05-27.78 385.54-28.93L385.54-28.93L385.54-28.93Q385.02-30.08 383.58-30.08L383.58-30.08L383.58-30.08Q382.14-30.08 381.18-29.18L381.18-29.18L381.18-29.18Q380.22-28.29 379.46-26.56ZM421.70-17.98L421.70-17.98L421.70-17.98Q424.00-22.08 424.00-26.24L424.00-26.24L424.00-26.24Q424.00-28.99 422.02-28.99L422.02-28.99L422.02-28.99Q420.48-28.99 418.88-26.37L418.88-26.37L418.88-26.37Q417.22-23.74 416.70-20.35L416.70-20.35L413.38 0L400.13 1.28L406.66-32.64L417.22-33.92L416.06-27.46L416.06-27.46Q419.20-33.92 426.24-33.92L426.24-33.92L426.24-33.92Q429.95-33.92 431.97-32L431.97-32L431.97-32Q433.98-30.08 433.98-26.14L433.98-26.14L433.98-26.14Q433.98-22.21 431.39-19.71L431.39-19.71L431.39-19.71Q428.80-17.22 424.38-17.22L424.38-17.22L424.38-17.22Q422.46-17.22 421.70-17.98ZM451.52-30.34L451.52-30.34L451.52-30.34Q454.98-33.92 462.27-33.92L462.27-33.92L462.27-33.92Q466.30-33.92 468.51-31.78L468.51-31.78L468.51-31.78Q470.72-29.63 470.72-25.70L470.72-25.70L470.72-25.70Q470.72-21.76 468.51-18.98L468.51-18.98L468.51-18.98Q466.30-16.19 462.21-15.04L462.21-15.04L462.21-15.04Q462.53-13.76 462.98-12.42L462.98-12.42L463.87-9.86L463.87-9.86Q465.09-6.59 466.05-5.44L466.05-5.44L466.05-5.44Q467.01-4.29 468.29-3.90L468.29-3.90L468.29-3.90Q467.58-1.28 465.02 0.13L465.02 0.13L465.02 0.13Q462.98 1.28 460.16 1.28L460.16 1.28L460.16 1.28Q451.90 1.28 450.82-11.46L450.82-11.46L450.82-11.46Q450.62-13.25 450.62-15.04L450.62-15.04L450.62-15.04Q453.82-15.94 456.06-18.94L456.06-18.94L456.06-18.94Q458.30-21.95 458.30-25.47L458.30-25.47L458.30-25.47Q458.30-28.99 455.81-28.99L455.81-28.99L455.81-28.99Q454.02-28.99 452.61-27.01L452.61-27.01L452.61-27.01Q451.20-25.02 450.56-21.63L450.56-21.63L446.34 0L433.41 1.28L442.37-44.80L455.23-46.08L453.76-38.46L453.76-38.46Q452.80-33.09 451.52-30.34Z" fill="none" stroke="#e9ffd4" stroke-width="1"></path></g></g><style>text {
  font-size: 64px;
  font-family: Arial Black;
  dominant-baseline: central;
  text-anchor: middle;
}</style></svg>