<?xml version="1.0" encoding="utf-8"?>
<!-- Generator: Adobe Illustrator 27.5.0, SVG Export Plug-In . SVG Version: 6.00 Build 0)  -->
<svg version="1.1" xmlns="http://www.w3.org/2000/svg" xmlns:xlink="http://www.w3.org/1999/xlink" x="0px" y="0px"
	 viewBox="0 0 500 500" style="enable-background:new 0 0 500 500;" xml:space="preserve">
<g id="Background">
	<rect x="0.238" style="fill:#EBEBEB;" width="500" height="500"/>
	<rect style="fill:#FFFFFF;" width="500" height="500"/>
</g>
<g id="Objects">
	<g>
		<g>
			<g>
				<g>
					
						<text transform="matrix(1 0 0 1 73.3838 385.1398)" style="fill:#4AD4A1; font-family:'SHPinscher-Regular'; font-size:48px; letter-spacing:-1;">PAGE NOT FOUND</text>
				</g>
			</g>
			<g>
				<g>
					
						<text transform="matrix(1 0 0 1 70.837 385.1398)" style="fill:#D00F3C; font-family:'SHPinscher-Regular'; font-size:48px; letter-spacing:-1;">PAGE NOT FOUND</text>
				</g>
			</g>
			<g>
				<g>
					
						<text transform="matrix(1 0 0 1 72.1271 385.1398)" style="font-family:'SHPinscher-Regular'; font-size:48px; letter-spacing:-1;">PAGE NOT FOUND</text>
				</g>
			</g>
		</g>
		<g>
			<g>
				<g>
					<path style="fill:#4AD4A1;" d="M282.966,299.681h-5.579v-7.801l-0.014-0.015l-4.423-4.423l-1.672-1.672l6.109-6.11h3.821
						v-4.423h-1.599v-13.903l-6.108-6.11h-45.023v20.013h2.945v4.423h-5.167v7.782v4.423v7.815h3.291v4.423v12.213h12.218v-12.213
						v-4.423h-3.291v-7.801h26.696v7.801h5.579v4.423v12.213h12.218v-12.213V299.681z M240.695,267.443h26.695v7.795h0.008v4.423
						h-2.229h-18.888v-4.423h-5.585V267.443z"/>
					<path style="fill:#4AD4A1;" d="M346.035,291.866v-4.423v-7.782h1.591v-4.423h2.388v-13.903l-6.109-6.11H304.99l-6.109,6.11
						v13.903h-8.831v4.423h4.851v7.782v4.423v7.815h3.979v4.423v6.103l6.109,6.11h38.915l6.109-6.11v-6.103h1.506v-4.423h-5.486
						V291.866z M337.796,304.099H311.1v-4.418h-3.98v-7.815v-4.423v-7.782h1.592v-4.423h2.388v-7.795h26.696v7.795h-8.831v4.423
						h4.851v7.782v4.423v7.815h3.979V304.099z"/>
					<polygon style="fill:#4AD4A1;" points="287.389,316.317 282.966,316.317 282.966,320.74 282.966,325.163 287.389,325.163 
						287.389,320.74 					"/>
				</g>
				<g>
					<polygon style="fill:#4AD4A1;" points="101.624,304.104 100.025,304.104 100.025,310.207 106.134,316.317 109.314,316.317 
						109.314,320.74 113.737,320.74 113.737,316.317 147.891,316.317 147.891,304.104 					"/>
					<polygon style="fill:#4AD4A1;" points="143.994,287.443 143.994,279.661 109.855,279.661 109.855,275.238 112.243,275.238 
						112.243,267.443 147.891,267.443 147.891,255.225 106.134,255.225 100.025,261.335 100.025,275.238 91.608,275.238 
						91.608,279.661 96.045,279.661 96.045,287.443 96.045,291.866 143.994,291.866 					"/>
					<polygon style="fill:#4AD4A1;" points="113.842,299.681 108.263,299.681 108.263,291.881 96.045,291.866 96.045,299.681 
						101.624,299.681 101.624,304.104 113.842,304.099 					"/>
					<rect x="87.185" y="279.661" style="fill:#4AD4A1;" width="4.423" height="4.423"/>
					<polygon style="fill:#4AD4A1;" points="100.468,320.74 96.045,320.74 91.621,320.74 91.621,325.163 96.045,325.163 
						100.468,325.163 					"/>
					<rect x="100.46" y="325.171" style="fill:#4AD4A1;" width="4.423" height="4.423"/>
					<polygon style="fill:#4AD4A1;" points="147.891,316.317 147.891,320.74 147.891,325.163 152.314,325.163 152.314,320.74 
						152.314,316.317 					"/>
					<polygon style="fill:#4AD4A1;" points="78.339,284.084 73.916,284.084 69.493,284.084 69.493,288.507 73.916,288.507 
						78.339,288.507 82.762,288.507 87.185,288.507 87.185,284.084 82.762,284.084 					"/>
					<rect x="65.07" y="279.661" style="fill:#4AD4A1;" width="4.423" height="4.423"/>
				</g>
				<g>
					<path style="fill:#4AD4A1;" d="M415.479,261.335l-6.11-6.11h-28.382v-4.423h-4.423v4.423h-12.218v20.013h-3.979v4.423v7.782
						v4.423v7.815h3.979v4.423v12.213h12.218v-12.213h4.423v-4.423h-8.402v-7.801h18.918l7.778,7.777v0.023h0.023h4.404h1.151v4.423
						v7.79v4.423h12.218h4.582v-4.423h-4.582v-7.79v-4.423h-5.579v-7.801l-0.014-0.015l-4.423-4.423l-1.672-1.672l6.109-6.11h14.585
						v-4.423h-10.604V261.335z M400.565,275.238v4.423h-1.283h-25.105v-4.423h2.388v-7.795h26.697v7.795H400.565z"/>
					<rect x="376.564" y="316.317" style="fill:#4AD4A1;" width="4.423" height="4.423"/>
					<polygon style="fill:#4AD4A1;" points="376.564,241.956 372.141,241.956 372.141,246.378 372.141,250.802 376.564,250.802 
						376.564,246.378 					"/>
					<polygon style="fill:#4AD4A1;" points="426.084,270.815 426.084,275.238 430.507,275.238 434.93,275.238 434.93,270.815 
						430.507,270.815 					"/>
					<rect x="439.353" y="275.238" style="fill:#4AD4A1;" width="4.423" height="4.423"/>
					<rect x="430.507" y="284.084" style="fill:#4AD4A1;" width="4.423" height="4.423"/>
					<polygon style="fill:#4AD4A1;" points="421.661,325.163 426.084,325.163 426.084,320.74 426.084,316.317 421.661,316.317 
						421.661,320.74 					"/>
				</g>
				<g>
					<path style="fill:#4AD4A1;" d="M212.561,291.881l-0.014-0.015l-4.423-4.423l-1.671-1.672l6.108-6.11h1.592v-4.423h-1.592
						v-13.903l-6.109-6.11h-45.023v20.013v4.423h0.001v7.782v4.423v7.815v4.423h3.979v12.213h12.218v-12.213h-3.979v-4.423v-7.801
						h26.695v7.801h4.423v4.423v12.213h3.722h8.496h3.722v-4.423h-3.722v-7.79v-4.423h-4.423V291.881 M173.647,267.443h26.696v7.795
						l0,0v4.423H179.93v-4.423h-6.283V267.443z"/>
					<rect x="200.343" y="316.317" style="fill:#4AD4A1;" width="4.423" height="4.423"/>
					<polygon style="fill:#4AD4A1;" points="170.275,250.802 174.682,250.802 174.682,246.378 170.275,246.378 170.259,246.378 
						165.852,246.378 165.852,250.802 170.259,250.802 					"/>
					<rect x="174.682" y="241.956" style="fill:#4AD4A1;" width="4.423" height="4.423"/>
				</g>
				<g>
					<g>
						<path style="fill:#D00F3C;" d="M274.12,299.681h-5.579v-7.801l-0.014-0.015l-4.423-4.423l-1.672-1.672l6.109-6.11h3.821
							v-4.423h-1.599v-13.903l-6.108-6.11h-45.023v20.013h2.945v4.423h-5.167v7.782v4.423v7.815h3.291v4.423v12.213h12.218v-12.213
							v-4.423h-3.291v-7.801h26.696v7.801h5.579v4.423v12.213h12.218v-12.213V299.681z M231.849,267.443h26.695v7.795h0.008v4.423
							h-2.229h-18.888v-4.423h-5.585V267.443z"/>
						<path style="fill:#D00F3C;" d="M337.189,291.866v-4.423v-7.782h1.591v-4.423h2.388v-13.903l-6.109-6.11h-38.915l-6.109,6.11
							v13.903h-8.831v4.423h4.851v7.782v4.423v7.815h3.979v4.423v6.103l6.109,6.11h38.915l6.109-6.11v-6.103h1.507v-4.423h-5.486
							V291.866z M328.95,304.099h-26.696v-4.418h-3.98v-7.815v-4.423v-7.782h1.592v-4.423h2.388v-7.795h26.696v7.795h-8.831v4.423
							h4.851v7.782v4.423v7.815h3.979V304.099z"/>
						<polygon style="fill:#D00F3C;" points="278.543,316.317 274.12,316.317 274.12,320.74 274.12,325.163 278.543,325.163 
							278.543,320.74 						"/>
					</g>
				</g>
				<g>
					<g>
						<polygon style="fill:#D00F3C;" points="92.777,304.104 91.178,304.104 91.178,310.207 97.288,316.317 100.468,316.317 
							100.468,320.74 104.891,320.74 104.891,316.317 139.045,316.317 139.045,304.104 						"/>
						<polygon style="fill:#D00F3C;" points="135.148,287.443 135.148,279.661 101.009,279.661 101.009,275.238 103.397,275.238 
							103.397,267.443 139.045,267.443 139.045,255.225 97.288,255.225 91.178,261.335 91.178,275.238 82.762,275.238 
							82.762,279.661 87.199,279.661 87.199,287.443 87.199,291.866 135.148,291.866 						"/>
						<polygon style="fill:#D00F3C;" points="104.996,299.681 99.417,299.681 99.417,291.881 87.199,291.866 87.199,299.681 
							92.777,299.681 92.777,304.104 104.996,304.099 						"/>
						<rect x="78.339" y="279.661" style="fill:#D00F3C;" width="4.423" height="4.423"/>
						<polygon style="fill:#D00F3C;" points="91.621,320.74 87.199,320.74 82.775,320.74 82.775,325.163 87.199,325.163 
							91.621,325.163 						"/>
						<rect x="91.614" y="325.171" style="fill:#D00F3C;" width="4.423" height="4.423"/>
						<polygon style="fill:#D00F3C;" points="139.045,316.317 139.045,320.74 139.045,325.163 143.468,325.163 143.468,320.74 
							143.468,316.317 						"/>
						<polygon style="fill:#D00F3C;" points="69.493,284.084 65.07,284.084 60.647,284.084 60.647,288.507 65.07,288.507 
							69.493,288.507 73.916,288.507 78.339,288.507 78.339,284.084 73.916,284.084 						"/>
						<rect x="56.224" y="279.661" style="fill:#D00F3C;" width="4.423" height="4.423"/>
					</g>
				</g>
				<g>
					<g>
						<path style="fill:#D00F3C;" d="M406.633,261.335l-6.11-6.11h-28.382v-4.423h-4.423v4.423H355.5v20.013h-3.979v4.423v7.782
							v4.423v7.815h3.979v4.423v12.213h12.218v-12.213h4.423v-4.423h-8.402v-7.801h18.918l7.778,7.777v0.023h0.023h4.404h1.151
							v4.423v7.79v4.423h12.218h4.582v-4.423h-4.582v-7.79v-4.423h-5.579v-7.801l-0.014-0.015l-4.423-4.423l-1.672-1.672l6.109-6.11
							h14.585v-4.423h-10.604V261.335z M391.719,275.238v4.423h-1.283H365.33v-4.423h2.388v-7.795h26.697v7.795H391.719z"/>
						<rect x="367.718" y="316.317" style="fill:#D00F3C;" width="4.423" height="4.423"/>
						<polygon style="fill:#D00F3C;" points="367.718,241.956 363.295,241.956 363.295,246.378 363.295,250.802 367.718,250.802 
							367.718,246.378 						"/>
						<polygon style="fill:#D00F3C;" points="417.238,270.815 417.238,275.238 421.661,275.238 426.084,275.238 426.084,270.815 
							421.661,270.815 						"/>
						<rect x="430.507" y="275.238" style="fill:#D00F3C;" width="4.423" height="4.423"/>
						<rect x="421.661" y="284.084" style="fill:#D00F3C;" width="4.423" height="4.423"/>
						<polygon style="fill:#D00F3C;" points="412.815,325.163 417.238,325.163 417.238,320.74 417.238,316.317 412.815,316.317 
							412.815,320.74 						"/>
					</g>
				</g>
				<g>
					<g>
						<path style="fill:#D00F3C;" d="M208.138,304.104v-4.423h-4.423v-7.801l-0.014-0.015l-4.423-4.423l-1.671-1.672l6.108-6.11
							h1.592v-4.423h-1.592v-13.903l-6.109-6.11h-45.023v20.013v4.423h0.001v7.782v4.423v7.815v4.423h3.979v12.213h12.218v-12.213
							h-3.979v-4.423v-7.801h26.695v7.801h4.423v4.423v12.213h3.722h8.496h3.722v-4.423h-3.722V304.104z M164.801,267.443h26.696
							v7.795l0,0v4.423h-20.413v-4.423h-6.283V267.443z"/>
						<rect x="191.497" y="316.317" style="fill:#D00F3C;" width="4.423" height="4.423"/>
						<polygon style="fill:#D00F3C;" points="161.429,250.802 165.836,250.802 165.836,246.378 161.429,246.378 161.413,246.378 
							157.006,246.378 157.006,250.802 161.413,250.802 						"/>
						<rect x="165.836" y="241.956" style="fill:#D00F3C;" width="4.423" height="4.423"/>
					</g>
				</g>
				<g>
					<path d="M278.543,299.681h-5.579v-7.801l-0.014-0.015l-4.423-4.423l-1.672-1.672l6.109-6.11h3.821v-4.423h-1.599v-13.904
						l-6.108-6.11h-45.023v20.013h2.945v4.423h-5.167v7.782v4.423v7.815h3.291v4.423v12.213h12.218v-12.213v-4.423h-3.291v-7.801
						h26.696v7.801h5.579v4.423v12.213h12.218v-12.213V299.681z M262.976,279.661h-2.229h-18.889v-4.423h-5.585v-7.795h26.695v7.795
						h0.008V279.661z"/>
					<path d="M341.612,291.866v-4.423v-7.782h1.591v-4.423h2.388v-13.904l-6.109-6.11h-38.915l-6.109,6.11v13.904h-8.831v4.423
						h4.851v7.782v4.423v7.815h3.979v4.423v6.103l6.109,6.11h38.915l6.109-6.11v-6.103h1.507v-4.423h-5.486V291.866z
						 M333.373,275.238h-8.831v4.423h4.851v7.782v4.423v7.815h3.979v4.418h-26.696v-4.418h-3.98v-7.815v-4.423v-7.782h1.592v-4.423
						h2.388v-7.795h26.696V275.238z"/>
					<polygon points="278.543,320.74 278.543,325.163 282.966,325.163 282.966,320.74 282.966,316.317 278.543,316.317 					"/>
					<polygon points="97.201,304.104 95.601,304.104 95.601,310.207 101.711,316.317 104.891,316.317 104.891,320.74 
						109.314,320.74 109.314,316.317 143.468,316.317 143.468,304.104 					"/>
					<polygon points="139.571,287.443 139.571,279.661 105.432,279.661 105.432,275.238 107.82,275.238 107.82,267.443 
						143.468,267.443 143.468,255.225 101.711,255.225 95.601,261.335 95.601,275.238 87.185,275.238 87.185,279.661 
						91.621,279.661 91.621,287.443 91.621,291.866 139.571,291.866 					"/>
					<polygon points="109.419,299.681 103.84,299.681 103.84,291.881 91.621,291.866 91.621,299.681 97.201,299.681 97.201,304.104 
						109.419,304.099 					"/>
					<rect x="82.762" y="279.661" width="4.423" height="4.423"/>
					<polygon points="96.045,320.74 91.621,320.74 87.199,320.74 87.199,325.163 91.621,325.163 96.045,325.163 					"/>
					<rect x="96.037" y="325.171" width="4.423" height="4.423"/>
					<polygon points="143.468,320.74 143.468,325.163 147.891,325.163 147.891,320.74 147.891,316.317 143.468,316.317 					"/>
					<polygon points="73.916,284.084 69.493,284.084 65.07,284.084 65.07,288.507 69.493,288.507 73.916,288.507 78.339,288.507 
						82.762,288.507 82.762,284.084 78.339,284.084 					"/>
					<rect x="60.647" y="279.661" width="4.423" height="4.423"/>
					<path d="M411.056,261.335l-6.11-6.11h-28.382v-4.423h-4.423v4.423h-12.218v20.013h-3.979v4.423v7.782v4.423v7.815h3.979v4.423
						v12.213h12.218v-12.213h4.423v-4.423h-8.402v-7.801h18.918l7.778,7.777v0.023h0.023h4.404h1.151v4.423v7.79v4.423h12.218h4.582
						v-4.423h-4.582v-7.79v-4.423h-5.579v-7.801l-0.014-0.015l-4.423-4.423l-1.672-1.672l6.109-6.11h14.584v-4.423h-10.604V261.335z
						 M398.838,275.238h-2.696v4.423h-1.284h-25.105v-4.423h2.388v-7.795h26.697V275.238z"/>
					<rect x="372.141" y="316.317" width="4.423" height="4.423"/>
					<polygon points="372.141,241.955 367.718,241.955 367.718,246.378 367.718,250.802 372.141,250.802 372.141,246.378 					"/>
					<polygon points="421.661,270.815 421.661,275.238 426.084,275.238 430.507,275.238 430.507,270.815 426.084,270.815 					"/>
					<rect x="434.93" y="275.238" width="4.423" height="4.423"/>
					<rect x="426.084" y="284.084" width="4.423" height="4.423"/>
					<polygon points="417.238,325.163 421.661,325.163 421.661,320.74 421.661,316.317 417.238,316.317 417.238,320.74 					"/>
					<path d="M212.561,304.104v-4.423h-4.423v-7.801l-0.014-0.015l-4.423-4.423l-1.671-1.672l6.108-6.11h1.592v-4.423h-1.592
						v-13.904l-6.109-6.11h-45.023v20.013v4.423h0.001v7.782v4.423v7.815v4.423h3.979v12.213h12.218v-12.213h-3.979v-4.423v-7.801
						h26.695v7.801h4.423v4.423v12.213h3.722h8.496h3.722v-4.423h-3.722V304.104z M195.92,275.238v4.423h-20.413v-4.423h-6.283
						v-7.795h26.696V275.238z"/>
					<rect x="195.92" y="316.317" width="4.423" height="4.423"/>
					<polygon points="165.852,250.802 170.259,250.802 170.259,246.378 165.852,246.378 165.836,246.378 161.429,246.378 
						161.429,250.802 165.836,250.802 					"/>
					<rect x="170.259" y="241.955" width="4.423" height="4.423"/>
				</g>
			</g>
			<g>
				<g>
					<rect x="143.733" y="224.267" style="fill:#D00F3C;" width="4.423" height="4.423"/>
					<rect x="214.843" y="160.772" style="fill:#D00F3C;" width="4.423" height="4.423"/>
					<rect x="139.31" y="228.69" style="fill:#D00F3C;" width="4.423" height="4.423"/>
					<rect x="134.887" y="228.69" style="fill:#D00F3C;" width="4.423" height="4.423"/>
					<rect x="130.464" y="228.69" style="fill:#D00F3C;" width="4.423" height="4.423"/>
					<rect x="126.041" y="233.113" style="fill:#D00F3C;" width="4.423" height="4.423"/>
					<rect x="280.207" y="233.113" style="fill:#D00F3C;" width="4.423" height="4.423"/>
					<rect x="275.784" y="233.113" style="fill:#D00F3C;" width="4.423" height="4.423"/>
					<rect x="271.361" y="233.113" style="fill:#D00F3C;" width="4.423" height="4.423"/>
					<rect x="266.938" y="228.69" style="fill:#D00F3C;" width="4.423" height="4.423"/>
					<rect x="262.515" y="224.267" style="fill:#D00F3C;" width="4.423" height="4.423"/>
					<rect x="262.515" y="224.267" style="fill:#D00F3C;" width="4.423" height="4.423"/>
					<polygon style="fill:#D00F3C;" points="123.329,125.703 93.769,125.703 91.832,130.126 121.54,130.126 					"/>
					<rect x="143.733" y="125.703" style="fill:#D00F3C;" width="30.474" height="4.423"/>
					<g>
						<polygon style="fill:#D00F3C;" points="363.818,100.289 335.107,100.289 323.976,125.703 353.536,125.703 						"/>
						<rect x="373.941" y="100.289" style="fill:#D00F3C;" width="30.473" height="25.414"/>
					</g>
					<polygon style="fill:#D00F3C;" points="369.518,130.126 369.518,158.633 335.791,158.633 347.324,130.126 317.616,130.126 
						299.645,171.16 319.356,189.45 369.518,189.45 369.518,205.701 399.991,205.701 399.991,130.126 					"/>
					<rect x="365.095" y="210.124" style="fill:#D00F3C;" width="30.473" height="18.566"/>
					<polygon style="fill:#D00F3C;" points="344.69,125.703 315.13,125.703 313.193,130.126 342.901,130.126 					"/>
					<rect x="365.095" y="125.703" style="fill:#D00F3C;" width="30.473" height="4.423"/>
					<rect x="373.941" y="205.701" style="fill:#D00F3C;" width="30.473" height="4.423"/>
					<polygon style="fill:#D00F3C;" points="279.61,100.289 213.184,100.289 199.316,114.499 199.316,125.703 199.316,130.126 
						199.316,156.349 228.112,156.349 228.112,128.091 264.51,128.091 264.51,156.349 293.477,156.349 293.477,114.499 					"/>
					<rect x="186.047" y="156.349" style="fill:#D00F3C;" width="28.796" height="4.423"/>
					<rect x="255.664" y="156.349" style="fill:#D00F3C;" width="28.967" height="4.423"/>
					<g>
						<polygon style="fill:#D00F3C;" points="142.457,100.289 113.747,100.289 102.616,125.703 132.176,125.703 						"/>
						<rect x="152.58" y="100.289" style="fill:#D00F3C;" width="30.474" height="25.414"/>
					</g>
					<rect x="395.568" y="224.267" style="fill:#D00F3C;" width="4.423" height="4.423"/>
					<rect x="404.414" y="210.124" style="fill:#D00F3C;" width="4.423" height="4.423"/>
					<rect x="404.414" y="95.866" style="fill:#D00F3C;" width="4.423" height="4.423"/>
					<rect x="399.991" y="95.866" style="fill:#D00F3C;" width="4.423" height="4.423"/>
					<rect x="395.568" y="95.866" style="fill:#D00F3C;" width="4.423" height="4.423"/>
					<rect x="408.837" y="91.443" style="fill:#D00F3C;" width="4.423" height="4.423"/>
					<rect x="219.266" y="87.02" style="fill:#D00F3C;" width="4.423" height="4.423"/>
					<rect x="223.689" y="91.443" style="fill:#D00F3C;" width="4.423" height="4.423"/>
					<rect x="228.112" y="91.443" style="fill:#D00F3C;" width="4.423" height="4.423"/>
					<rect x="232.535" y="91.443" style="fill:#D00F3C;" width="4.423" height="4.423"/>
					<rect x="236.958" y="95.866" style="fill:#D00F3C;" width="4.423" height="4.423"/>
					<rect x="178.631" y="95.866" style="fill:#D00F3C;" width="4.423" height="4.423"/>
					<rect x="183.054" y="95.866" style="fill:#D00F3C;" width="4.423" height="4.423"/>
					<rect x="187.477" y="91.443" style="fill:#D00F3C;" width="4.423" height="4.423"/>
					<rect x="408.837" y="210.124" style="fill:#D00F3C;" width="4.423" height="4.423"/>
					<rect x="413.261" y="210.124" style="fill:#D00F3C;" width="4.423" height="4.423"/>
					<rect x="360.672" y="224.267" style="fill:#D00F3C;" width="4.423" height="4.423"/>
					<rect x="391.145" y="224.267" style="fill:#D00F3C;" width="4.423" height="4.423"/>
					<g>
						<rect x="148.157" y="193.917" style="fill:#D00F3C;" width="30.474" height="34.773"/>
						<polygon style="fill:#D00F3C;" points="178.631,130.126 148.157,130.126 148.157,158.633 114.431,158.633 125.963,130.126 
							96.256,130.126 78.284,171.16 97.996,189.45 148.157,189.45 148.157,189.494 178.631,189.494 						"/>
						<rect x="143.733" y="189.494" style="fill:#D00F3C;" width="30.474" height="4.423"/>
						<g>
							<polygon style="fill:#D00F3C;" points="260.087,160.772 260.087,200.887 223.689,200.887 223.689,193.917 194.893,193.917 
								194.893,214.48 208.761,228.69 275.187,228.69 289.054,214.48 289.054,160.772 							"/>
							<rect x="190.47" y="160.772" style="fill:#D00F3C;" width="28.796" height="28.722"/>
							<rect x="190.47" y="189.494" style="fill:#D00F3C;" width="28.796" height="4.423"/>
						</g>
					</g>
				</g>
			</g>
			<g>
				<rect x="152.579" y="224.267" style="fill:#4AD4A1;" width="4.423" height="4.423"/>
				<rect x="223.689" y="160.772" style="fill:#4AD4A1;" width="4.423" height="4.423"/>
				<rect x="148.156" y="228.69" style="fill:#4AD4A1;" width="4.423" height="4.423"/>
				<rect x="143.733" y="228.69" style="fill:#4AD4A1;" width="4.423" height="4.423"/>
				<rect x="139.31" y="228.69" style="fill:#4AD4A1;" width="4.423" height="4.423"/>
				<rect x="134.887" y="233.113" style="fill:#4AD4A1;" width="4.423" height="4.423"/>
				<rect x="289.054" y="233.113" style="fill:#4AD4A1;" width="4.423" height="4.423"/>
				<rect x="284.63" y="233.113" style="fill:#4AD4A1;" width="4.423" height="4.423"/>
				<rect x="280.207" y="233.113" style="fill:#4AD4A1;" width="4.423" height="4.423"/>
				<rect x="275.784" y="228.69" style="fill:#4AD4A1;" width="4.423" height="4.423"/>
				<rect x="271.361" y="224.267" style="fill:#4AD4A1;" width="4.423" height="4.423"/>
				<rect x="271.361" y="224.267" style="fill:#4AD4A1;" width="4.423" height="4.423"/>
				<polygon style="fill:#4AD4A1;" points="132.175,125.703 102.615,125.703 100.678,130.126 130.386,130.126 				"/>
				<rect x="152.579" y="125.703" style="fill:#4AD4A1;" width="30.474" height="4.423"/>
				<g>
					<polygon style="fill:#4AD4A1;" points="372.664,100.289 343.953,100.289 332.822,125.703 362.382,125.703 					"/>
					<rect x="382.787" y="100.289" style="fill:#4AD4A1;" width="30.473" height="25.414"/>
				</g>
				<polygon style="fill:#4AD4A1;" points="378.364,130.126 378.364,158.633 344.637,158.633 356.17,130.126 326.462,130.126 
					308.491,171.16 328.202,189.45 378.364,189.45 378.364,205.701 408.837,205.701 408.837,130.126 				"/>
				<rect x="373.941" y="210.124" style="fill:#4AD4A1;" width="30.473" height="18.566"/>
				<polygon style="fill:#4AD4A1;" points="353.536,125.703 323.976,125.703 322.039,130.126 351.747,130.126 				"/>
				<rect x="373.941" y="125.703" style="fill:#4AD4A1;" width="30.473" height="4.423"/>
				<rect x="382.787" y="205.701" style="fill:#4AD4A1;" width="30.473" height="4.423"/>
				<polygon style="fill:#4AD4A1;" points="288.456,100.289 222.03,100.289 208.162,114.499 208.162,125.703 208.162,130.126 
					208.162,156.349 236.958,156.349 236.958,128.091 273.356,128.091 273.356,156.349 302.323,156.349 302.323,114.499 				"/>
				<rect x="194.893" y="156.349" style="fill:#4AD4A1;" width="28.796" height="4.423"/>
				<rect x="264.51" y="156.349" style="fill:#4AD4A1;" width="28.967" height="4.423"/>
				<g>
					<polygon style="fill:#4AD4A1;" points="151.303,100.289 122.593,100.289 111.462,125.703 141.022,125.703 					"/>
					<rect x="161.426" y="100.289" style="fill:#4AD4A1;" width="30.474" height="25.414"/>
				</g>
				<rect x="404.414" y="224.267" style="fill:#4AD4A1;" width="4.423" height="4.423"/>
				<rect x="413.261" y="210.124" style="fill:#4AD4A1;" width="4.423" height="4.423"/>
				<rect x="413.261" y="95.866" style="fill:#4AD4A1;" width="4.423" height="4.423"/>
				<rect x="408.837" y="95.866" style="fill:#4AD4A1;" width="4.423" height="4.423"/>
				<rect x="404.414" y="95.866" style="fill:#4AD4A1;" width="4.423" height="4.423"/>
				<rect x="417.684" y="91.443" style="fill:#4AD4A1;" width="4.423" height="4.423"/>
				<rect x="228.112" y="87.02" style="fill:#4AD4A1;" width="4.423" height="4.423"/>
				<rect x="232.535" y="91.443" style="fill:#4AD4A1;" width="4.423" height="4.423"/>
				<rect x="236.958" y="91.443" style="fill:#4AD4A1;" width="4.423" height="4.423"/>
				<rect x="241.381" y="91.443" style="fill:#4AD4A1;" width="4.423" height="4.423"/>
				<rect x="245.804" y="95.866" style="fill:#4AD4A1;" width="4.423" height="4.423"/>
				<rect x="187.477" y="95.866" style="fill:#4AD4A1;" width="4.423" height="4.423"/>
				<rect x="191.9" y="95.866" style="fill:#4AD4A1;" width="4.423" height="4.423"/>
				<rect x="196.323" y="91.443" style="fill:#4AD4A1;" width="4.423" height="4.423"/>
				<rect x="417.684" y="210.124" style="fill:#4AD4A1;" width="4.423" height="4.423"/>
				<rect x="422.107" y="210.124" style="fill:#4AD4A1;" width="4.423" height="4.423"/>
				<rect x="369.518" y="224.267" style="fill:#4AD4A1;" width="4.423" height="4.423"/>
				<rect x="399.991" y="224.267" style="fill:#4AD4A1;" width="4.423" height="4.423"/>
				<g>
					<rect x="157.003" y="193.917" style="fill:#4AD4A1;" width="30.474" height="34.773"/>
					<polygon style="fill:#4AD4A1;" points="187.477,130.126 157.003,130.126 157.003,158.633 123.277,158.633 134.809,130.126 
						105.102,130.126 87.13,171.16 106.842,189.45 157.003,189.45 157.003,189.494 187.477,189.494 					"/>
					<rect x="152.579" y="189.494" style="fill:#4AD4A1;" width="30.474" height="4.423"/>
					<g>
						<polygon style="fill:#4AD4A1;" points="268.933,160.772 268.933,200.887 232.535,200.887 232.535,193.917 203.739,193.917 
							203.739,214.48 217.607,228.69 284.033,228.69 297.9,214.48 297.9,160.772 						"/>
						<rect x="199.316" y="160.772" style="fill:#4AD4A1;" width="28.796" height="28.722"/>
						<rect x="199.316" y="189.494" style="fill:#4AD4A1;" width="28.796" height="4.423"/>
					</g>
				</g>
			</g>
			<g>
				<rect x="148.152" y="224.267" width="4.423" height="4.423"/>
				<polygon points="139.306,228.69 134.883,228.69 134.883,233.113 139.306,233.113 143.729,233.113 148.152,233.113 
					148.152,228.69 143.729,228.69 				"/>
				<rect x="130.46" y="233.113" width="4.423" height="4.423"/>
				<polygon points="280.203,237.536 284.626,237.536 289.049,237.536 289.049,233.113 284.626,233.113 280.203,233.113 
					275.78,233.113 275.78,237.536 				"/>
				<rect x="271.357" y="228.69" width="4.423" height="4.423"/>
				<polygon points="404.41,205.701 404.41,130.126 399.987,130.126 399.987,125.703 408.833,125.703 408.833,100.289 
					413.256,100.289 413.256,95.866 408.833,95.866 404.41,95.866 399.987,95.866 399.987,100.289 378.36,100.289 378.36,125.703 
					369.513,125.703 369.513,130.126 373.937,130.126 373.937,158.633 340.209,158.633 351.742,130.126 347.319,130.126 
					349.108,125.703 357.955,125.703 368.236,100.289 339.525,100.289 328.395,125.703 319.549,125.703 317.611,130.126 
					322.034,130.126 304.063,171.16 323.774,189.45 373.937,189.45 373.937,205.701 378.36,205.701 378.36,210.124 369.513,210.124 
					369.513,224.267 365.09,224.267 365.09,228.69 369.513,228.69 369.513,228.69 395.564,228.69 395.564,228.69 399.987,228.69 
					404.41,228.69 404.41,224.267 399.987,224.267 399.987,210.124 408.833,210.124 408.833,205.701 				"/>
				<path d="M245.799,100.289v-4.423h-4.423v4.423h-23.774l-13.868,14.21v11.204v4.423v26.223h-13.269v4.423h4.423v28.722v4.423
					h4.423v20.563l13.868,14.21h53.754v0h4.423v0h8.248l13.867-14.21v-53.708h-4.423v-4.423h8.846v-41.85l-13.867-14.21H245.799z
					 M264.505,160.772v40.115h-36.398v-6.97h-4.423v-4.423v-24.299v-4.423h-4.423v-4.423h13.269v-28.258h36.398v28.258h-8.846v4.423
					H264.505z"/>
				<rect x="413.256" y="91.443" width="4.423" height="4.423"/>
				<rect x="223.684" y="87.02" width="4.423" height="4.423"/>
				<polygon points="236.953,91.443 232.53,91.443 228.107,91.443 228.107,95.866 232.53,95.866 236.953,95.866 241.376,95.866 
					241.376,91.443 				"/>
				<polygon points="191.896,95.866 187.473,95.866 183.05,95.866 183.05,100.289 156.999,100.289 156.999,125.703 148.152,125.703 
					148.152,130.126 152.576,130.126 152.576,158.633 118.849,158.633 130.382,130.126 125.958,130.126 127.747,125.703 
					136.594,125.703 146.875,100.289 118.165,100.289 107.034,125.703 98.188,125.703 96.25,130.126 100.674,130.126 82.702,171.16 
					102.414,189.45 152.576,189.45 152.576,189.494 148.152,189.494 148.152,193.917 152.576,193.917 152.576,228.69 183.05,228.69 
					183.05,193.917 178.626,193.917 178.626,189.494 183.05,189.494 183.05,130.126 178.626,130.126 178.626,125.703 
					187.473,125.703 187.473,100.289 191.896,100.289 				"/>
				<rect x="191.896" y="91.443" width="4.423" height="4.423"/>
				<polygon points="417.679,210.124 413.256,210.124 408.833,210.124 408.833,214.547 413.256,214.547 417.679,214.547 
					422.102,214.547 422.102,210.124 				"/>
			</g>
		</g>
	</g>
</g>
<g id="Designed_by_Freepik">
	<g>
		<g id="XMLID_29_">
			<g id="XMLID_48_">
				<path id="XMLID_56_" style="fill:#1C1C1B;" d="M260.104,465.465c-0.432,0.443-0.803,0.931-1.109,1.453l-0.465-0.241
					c-0.067-0.298-0.349-0.503-0.659-0.466c-0.331,0.039-0.568,0.339-0.529,0.67c0.039,0.331,0.339,0.568,0.67,0.529
					c0.065-0.008,0.127-0.026,0.184-0.052l0.451,0.234c-0.251,0.554-0.433,1.139-0.539,1.744l0.746,0.132
					c0.23-1.306,0.85-2.507,1.792-3.473L260.104,465.465z"/>
				<path id="XMLID_55_" style="fill:#1C1C1B;" d="M265.592,463.163c-0.171,0-0.341,0.006-0.51,0.017l-0.074-0.626
					c0.188-0.149,0.296-0.389,0.266-0.645c-0.046-0.393-0.402-0.674-0.795-0.628c-0.393,0.046-0.674,0.402-0.628,0.795
					c0.03,0.254,0.189,0.461,0.405,0.564l0.073,0.624c-0.714,0.116-1.403,0.332-2.06,0.646l0.327,0.684
					c0.934-0.447,1.942-0.673,2.996-0.673c0.496,0,0.993,0.053,1.475,0.158l0.161-0.741
					C266.692,463.222,266.142,463.163,265.592,463.163z"/>
				<path id="XMLID_54_" style="fill:#1C1C1B;" d="M272.194,465.711c0.331-0.04,0.566-0.341,0.525-0.672
					c-0.04-0.331-0.341-0.566-0.672-0.526c-0.309,0.038-0.535,0.304-0.53,0.609l-0.416,0.363c-0.418-0.43-0.89-0.813-1.408-1.139
					l-0.404,0.641c1.134,0.715,2.021,1.726,2.563,2.925l0.69-0.313c-0.251-0.554-0.567-1.072-0.942-1.545l0.402-0.351
					C272.065,465.716,272.129,465.719,272.194,465.711z"/>
				<path id="XMLID_53_" style="fill:#1C1C1B;" d="M265.044,473.372c-0.386,0.023-0.775,0.035-1.157,0.035
					c-0.88,0-1.733-0.061-2.478-0.179c-0.39-0.062-0.846-0.155-1.27-0.292c1.047,1.861,3.07,3.125,5.389,3.125
					c2.855,0,5.262-1.916,5.949-4.504c-0.682,0.449-1.505,0.825-2.458,1.123C267.838,473.047,266.463,473.286,265.044,473.372z"/>
				<path id="XMLID_49_" style="fill:#1C1C1B;" d="M265.592,464.68c-3.352,0-6.08,2.666-6.08,5.943c0,0.426,0.046,0.849,0.137,1.261
					c0.674,0.483,2.706,0.89,5.348,0.731c2.879-0.173,5.297-0.957,6.672-2.159c-0.005-0.195-0.021-0.39-0.045-0.582
					C271.243,466.913,268.65,464.68,265.592,464.68z M263.432,471.194c-1.02,0-1.85-0.83-1.85-1.85c0-1.02,0.83-1.85,1.85-1.85
					c1.02,0,1.85,0.83,1.85,1.85C265.282,470.365,264.452,471.194,263.432,471.194z M268.17,470.286c-0.75,0-1.36-0.61-1.36-1.36
					s0.61-1.361,1.36-1.361s1.36,0.61,1.36,1.361S268.92,470.286,268.17,470.286z"/>
			</g>
			<path id="XMLID_46_" style="fill:#1C1C1B;" d="M281.595,466.547c-0.295-0.116-0.806-0.309-1.382-0.237
				c-0.551,0.069-0.844,0.341-0.844,1.007v0.866h2.228v1.717h-2.228v5.455h-1.932v-5.455h-1.34v-1.717h1.34v-0.888
				c0-1.68,0.896-2.783,2.568-2.783c0.643,0,1.157,0.122,1.59,0.308L281.595,466.547z"/>
			<path id="XMLID_44_" style="fill:#1C1C1B;" d="M286.298,469.879c-0.177-0.03-0.358-0.046-0.526-0.046
				c-0.895,0-1.51,0.548-1.51,1.614v3.908h-1.932v-7.172h1.872v0.785c0.452-0.673,1.14-0.977,2.021-0.977
				c0.414,0,0.848,0.128,1.094,0.337L286.298,469.879z"/>
			<path id="XMLID_41_" style="fill:#1C1C1B;" d="M293.965,471.757c0,0.222-0.015,0.489-0.037,0.651h-5.085
				c0.207,1.036,0.933,1.488,1.843,1.488c0.622,0,1.295-0.252,1.813-0.688l1.133,1.243c-0.814,0.748-1.851,1.088-3.057,1.088
				c-2.198,0-3.723-1.495-3.723-3.753c0-2.258,1.48-3.797,3.626-3.797C292.544,467.99,293.957,469.522,293.965,471.757z
				 M288.85,471.091h3.175c-0.178-0.918-0.733-1.436-1.562-1.436C289.554,469.655,289.021,470.203,288.85,471.091z"/>
			<path id="XMLID_38_" style="fill:#1C1C1B;" d="M301.618,471.757c0,0.222-0.015,0.489-0.037,0.651h-5.085
				c0.207,1.036,0.933,1.488,1.843,1.488c0.622,0,1.295-0.252,1.814-0.688l1.132,1.243c-0.814,0.748-1.85,1.088-3.057,1.088
				c-2.198,0-3.723-1.495-3.723-3.753c0-2.258,1.48-3.797,3.627-3.797C300.197,467.99,301.611,469.522,301.618,471.757z
				 M296.504,471.091h3.175c-0.178-0.918-0.733-1.436-1.562-1.436C297.207,469.655,296.674,470.203,296.504,471.091z"/>
			<path id="XMLID_35_" style="fill:#1C1C1B;" d="M309.964,471.764c0,2.154-1.495,3.775-3.471,3.775
				c-0.962,0-1.643-0.378-2.109-0.933v3.708h-1.924v-10.133h1.887v0.792c0.466-0.585,1.155-0.984,2.139-0.984
				C308.469,467.99,309.964,469.61,309.964,471.764z M304.287,471.764c0,1.132,0.747,1.976,1.843,1.976
				c1.14,0,1.85-0.881,1.85-1.976c0-1.095-0.711-1.976-1.85-1.976C305.035,469.788,304.287,470.632,304.287,471.764z"/>
			<path id="XMLID_32_" style="fill:#1C1C1B;" d="M313.068,465.836c0,0.696-0.54,1.229-1.236,1.229
				c-0.696,0-1.229-0.533-1.229-1.229c0-0.696,0.533-1.243,1.229-1.243C312.527,464.592,313.068,465.14,313.068,465.836z
				 M312.809,475.354h-1.932v-7.172h1.932V475.354z"/>
			<path id="XMLID_30_" style="fill:#1C1C1B;" d="M316.032,470.736l2.702-2.554h2.368l-3.479,3.375l3.501,3.797h-2.376l-2.716-2.901
				v2.901H314.1v-10.658h1.932V470.736z"/>
		</g>
		<g>
			<path style="fill:#1C1C1B;" d="M184.412,475.289v-1.055c-0.527,0.718-1.391,1.23-2.387,1.23c-1.846,0-3.149-1.406-3.149-3.706
				c0-2.256,1.289-3.721,3.149-3.721c0.952,0,1.816,0.469,2.387,1.245v-3.765h1.099v9.77H184.412z M184.412,473.37v-3.208
				c-0.395-0.615-1.245-1.143-2.124-1.143c-1.421,0-2.27,1.172-2.27,2.739c0,1.567,0.85,2.724,2.27,2.724
				C183.167,474.483,184.017,473.986,184.412,473.37z"/>
			<path style="fill:#1C1C1B;" d="M186.932,471.744c0-2.051,1.465-3.706,3.486-3.706c2.139,0,3.398,1.67,3.398,3.794v0.279h-5.727
				c0.088,1.333,1.025,2.446,2.549,2.446c0.805,0,1.626-0.322,2.182-0.894l0.527,0.718c-0.703,0.703-1.655,1.084-2.812,1.084
				C188.44,475.465,186.932,473.956,186.932,471.744z M190.403,468.947c-1.509,0-2.256,1.274-2.314,2.358h4.643
				C192.717,470.25,192.014,468.947,190.403,468.947z"/>
			<path style="fill:#1C1C1B;" d="M194.607,474.351l0.571-0.791c0.469,0.542,1.362,1.011,2.329,1.011c1.084,0,1.67-0.513,1.67-1.216
				c0-1.714-4.38-0.659-4.38-3.281c0-1.098,0.952-2.036,2.636-2.036c1.201,0,2.051,0.454,2.622,1.026l-0.513,0.762
				c-0.425-0.513-1.201-0.894-2.109-0.894c-0.967,0-1.567,0.483-1.567,1.113c0,1.552,4.38,0.527,4.38,3.281
				c0,1.187-0.952,2.138-2.783,2.138C196.306,475.465,195.324,475.113,194.607,474.351z"/>
			<path style="fill:#1C1C1B;" d="M201.477,466.471c0-0.41,0.337-0.747,0.732-0.747c0.41,0,0.747,0.337,0.747,0.747
				c0,0.41-0.337,0.732-0.747,0.732C201.814,467.203,201.477,466.881,201.477,466.471z M201.667,475.289v-7.075h1.099v7.075H201.667
				z"/>
			<path style="fill:#1C1C1B;" d="M204.582,477.105l0.556-0.82c0.586,0.703,1.289,0.967,2.3,0.967c1.172,0,2.27-0.571,2.27-2.124
				v-1.011c-0.512,0.718-1.377,1.26-2.373,1.26c-1.845,0-3.149-1.377-3.149-3.662c0-2.27,1.289-3.677,3.149-3.677
				c0.952,0,1.802,0.469,2.373,1.245v-1.069h1.099v6.87c0,2.344-1.641,3.076-3.369,3.076
				C206.237,478.16,205.416,477.926,204.582,477.105z M209.708,473.253v-3.091c-0.381-0.615-1.23-1.143-2.109-1.143
				c-1.421,0-2.27,1.128-2.27,2.695c0,1.553,0.849,2.695,2.27,2.695C208.478,474.41,209.327,473.868,209.708,473.253z"/>
			<path style="fill:#1C1C1B;" d="M217.413,475.289v-4.629c0-1.245-0.63-1.641-1.582-1.641c-0.864,0-1.685,0.527-2.095,1.099v5.17
				h-1.099v-7.075h1.099v1.025c0.498-0.586,1.464-1.201,2.519-1.201c1.48,0,2.256,0.747,2.256,2.285v4.966H217.413z"/>
			<path style="fill:#1C1C1B;" d="M219.932,471.744c0-2.051,1.465-3.706,3.486-3.706c2.139,0,3.398,1.67,3.398,3.794v0.279h-5.727
				c0.088,1.333,1.025,2.446,2.549,2.446c0.806,0,1.626-0.322,2.183-0.894l0.527,0.718c-0.703,0.703-1.655,1.084-2.812,1.084
				C221.441,475.465,219.932,473.956,219.932,471.744z M223.404,468.947c-1.509,0-2.256,1.274-2.314,2.358h4.643
				C225.718,470.25,225.015,468.947,223.404,468.947z"/>
			<path style="fill:#1C1C1B;" d="M233.35,475.289v-1.055c-0.527,0.718-1.392,1.23-2.388,1.23c-1.846,0-3.149-1.406-3.149-3.706
				c0-2.256,1.289-3.721,3.149-3.721c0.952,0,1.817,0.469,2.388,1.245v-3.765h1.098v9.77H233.35z M233.35,473.37v-3.208
				c-0.396-0.615-1.245-1.143-2.124-1.143c-1.421,0-2.27,1.172-2.27,2.739c0,1.567,0.85,2.724,2.27,2.724
				C232.105,474.483,232.954,473.986,233.35,473.37z"/>
			<path style="fill:#1C1C1B;" d="M239.692,475.289v-9.77h1.098v3.765c0.572-0.776,1.421-1.245,2.388-1.245
				c1.845,0,3.149,1.465,3.149,3.721c0,2.299-1.304,3.706-3.149,3.706c-0.996,0-1.86-0.513-2.388-1.23v1.055H239.692z
				 M242.899,474.483c1.436,0,2.286-1.157,2.286-2.724c0-1.568-0.85-2.739-2.286-2.739c-0.864,0-1.728,0.527-2.109,1.143v3.208
				C241.171,473.986,242.035,474.483,242.899,474.483z"/>
			<path style="fill:#1C1C1B;" d="M247.528,477.061c0.161,0.073,0.425,0.117,0.601,0.117c0.483,0,0.805-0.161,1.055-0.747
				l0.469-1.069l-2.959-7.148h1.187l2.358,5.8l2.344-5.8h1.201l-3.545,8.51c-0.425,1.025-1.143,1.421-2.08,1.435
				c-0.234,0-0.601-0.044-0.805-0.103L247.528,477.061z"/>
		</g>
	</g>
</g>
</svg>
